SplineFontDB: 3.2
FontName: QuadrillionMonoline-Regular
FullName: Quadrillion Monoline
FamilyName: Quadrillion Monoline
Weight: Regular
Copyright: Copyright (c) 2024, neilb
UComments: "2024-10-26: Created with FontForge (http://fontforge.org)"
Version: 1.000
ItalicAngle: 0
UnderlinePosition: -100
UnderlineWidth: 50
Ascent: 800
Descent: 200
InvalidEm: 0
LayerCount: 2
Layer: 0 0 "Back" 1
Layer: 1 0 "Fore" 0
XUID: [1021 441 2049316168 14921]
StyleMap: 0x0000
FSType: 0
OS2Version: 0
OS2_WeightWidthSlopeOnly: 0
OS2_UseTypoMetrics: 1
CreationTime: 1729927510
ModificationTime: 1730520215
PfmFamily: 17
TTFWeight: 400
TTFWidth: 5
LineGap: 0
VLineGap: 90
OS2TypoAscent: 900
OS2TypoAOffset: 0
OS2TypoDescent: -400
OS2TypoDOffset: 0
OS2TypoLinegap: 300
OS2WinAscent: 0
OS2WinAOffset: 1
OS2WinDescent: 0
OS2WinDOffset: 1
HheadAscent: 900
HheadAOffset: 0
HheadDescent: -400
HheadDOffset: 0
OS2CapHeight: 700
OS2XHeight: 500
OS2Vendor: 'PfEd'
MarkAttachClasses: 1
DEI: 91125
Encoding: UnicodeFull
UnicodeInterp: none
NameList: AGL For New Fonts
DisplaySize: -48
AntiAlias: 1
FitToEm: 1
WinInfo: 58928 16 8
BeginPrivate: 0
EndPrivate
Grid
-1000 500.166748047 m 0
 2000 500.166748047 l 1024
  Named: "x-height"
EndSplineSet
BeginChars: 1114113 126

StartChar: A
Encoding: 65 65 0
Width: 674
Flags: HMW
LayerCount: 2
Fore
SplineSet
87 0 m 0
 57 0 37 24 37 50 c 0
 37 57 39 63 41 69 c 2
 291 669 l 2
 299 687 316 700 337 700 c 0
 358 700 375 687 383 669 c 2
 633 69 l 2
 635 63 637 57 637 50 c 0
 637 24 617 0 587 0 c 0
 566 0 549 13 541 31 c 2
 491 150 l 1
 183 150 l 1
 133 31 l 2
 125 13 108 0 87 0 c 0
337 520 m 1
 225 250 l 1
 449 250 l 1
 337 520 l 1
EndSplineSet
EndChar

StartChar: B
Encoding: 66 66 1
Width: 624
Flags: HMW
LayerCount: 2
Fore
SplineSet
562 200 m 0
 562 88 479 0 362 0 c 2
 112 0 l 2
 84 0 62 22 62 50 c 0
 62 250 62 450 62 650 c 0
 62 678 84 700 112 700 c 2
 362 700 l 2
 479 700 562 612 562 500 c 0
 562 445 538 386 498 350 c 1
 538 314 562 255 562 200 c 0
462 500 m 0
 462 559 426 600 362 600 c 2
 162 600 l 1
 162 400 l 1
 362 400 l 2
 426 400 462 441 462 500 c 0
462 200 m 0
 462 259 426 300 362 300 c 2
 162 300 l 1
 162 100 l 1
 362 100 l 2
 426 100 462 141 462 200 c 0
EndSplineSet
EndChar

StartChar: C
Encoding: 67 67 2
Width: 599
Flags: HMW
LayerCount: 2
Fore
SplineSet
487 200 m 0
 516 200 537 177 537 150 c 0
 537 141 535 132 530 124 c 0
 484 48 404 0 312 0 c 0
 160 0 62 125 62 250 c 2
 62 450 l 2
 62 575 160 700 312 700 c 0
 404 700 484 652 530 576 c 0
 535 568 537 559 537 550 c 0
 537 524 516 500 487 500 c 0
 469 500 453 509 444 524 c 0
 415 573 370 600 312 600 c 0
 214 600 162 525 162 450 c 2
 162 250 l 2
 162 175 214 100 312 100 c 0
 370 100 415 127 444 176 c 0
 453 191 469 200 487 200 c 0
EndSplineSet
EndChar

StartChar: D
Encoding: 68 68 3
Width: 624
Flags: HMW
LayerCount: 2
Fore
SplineSet
112 700 m 2
 312 700 l 2
 464 700 562 575 562 450 c 2
 562 250 l 2
 562 125 464 0 312 0 c 2
 112 0 l 2
 84 0 62 22 62 50 c 2
 62 650 l 2
 62 678 84 700 112 700 c 2
162 600 m 1
 162 100 l 1
 312 100 l 2
 410 100 462 175 462 250 c 2
 462 450 l 2
 462 525 410 600 312 600 c 2
 162 600 l 1
EndSplineSet
EndChar

StartChar: E
Encoding: 69 69 4
Width: 624
Flags: HMW
LayerCount: 2
Fore
SplineSet
112 700 m 2
 512 700 l 2
 540 700 562 678 562 650 c 0
 562 622 540 600 512 600 c 2
 162 600 l 1
 162 400 l 1
 412 400 l 2
 440 400 462 378 462 350 c 0
 462 322 440 300 412 300 c 2
 162 300 l 1
 162 100 l 1
 512 100 l 2
 540 100 562 78 562 50 c 0
 562 22 540 0 512 0 c 2
 112 0 l 2
 84 0 62 22 62 50 c 0
 62 250 62 450 62 650 c 0
 62 678 84 700 112 700 c 2
EndSplineSet
EndChar

StartChar: F
Encoding: 70 70 5
Width: 624
Flags: HMW
LayerCount: 2
Fore
SplineSet
112 700 m 2
 512 700 l 2
 540 700 562 678 562 650 c 0
 562 622 540 600 512 600 c 2
 162 600 l 1
 162 400 l 1
 412 400 l 2
 440 400 462 378 462 350 c 0
 462 322 440 300 412 300 c 2
 162 300 l 1
 162 50 l 2
 162 22 140 0 112 0 c 0
 84 0 62 22 62 50 c 0
 62 250 62 450 62 650 c 0
 62 678 84 700 112 700 c 2
EndSplineSet
EndChar

StartChar: G
Encoding: 71 71 6
Width: 624
Flags: HMW
LayerCount: 2
Fore
SplineSet
537 550 m 0
 537 524 516 500 487 500 c 0
 469 500 453 509 444 524 c 0
 415 573 370 600 312 600 c 0
 214 600 162 525 162 450 c 2
 162 250 l 2
 162 175 214 100 312 100 c 0
 410 100 462 175 462 250 c 2
 462 300 l 1
 362 300 l 2
 334 300 312 322 312 350 c 0
 312 378 334 400 362 400 c 2
 512 400 l 2
 540 400 562 378 562 350 c 2
 562 250 l 2
 562 125 464 0 312 0 c 0
 160 0 62 125 62 250 c 2
 62 450 l 2
 62 575 160 700 312 700 c 0
 404 700 484 652 530 576 c 0
 535 568 537 559 537 550 c 0
EndSplineSet
EndChar

StartChar: H
Encoding: 72 72 7
Width: 624
Flags: HMW
LayerCount: 2
Fore
SplineSet
112 700 m 0
 140 700 162 678 162 650 c 2
 162 400 l 1
 462 400 l 1
 462 650 l 2
 462 678 484 700 512 700 c 0
 540 700 562 678 562 650 c 0
 562 450 562 250 562 50 c 0
 562 22 540 0 512 0 c 0
 484 0 462 22 462 50 c 2
 462 300 l 1
 162 300 l 1
 162 50 l 2
 162 22 140 0 112 0 c 0
 84 0 62 22 62 50 c 2
 62 650 l 2
 62 678 84 700 112 700 c 0
EndSplineSet
EndChar

StartChar: I
Encoding: 73 73 8
Width: 224
Flags: HMW
LayerCount: 2
Fore
SplineSet
112 700 m 0
 140 700 162 678 162 650 c 2
 162 50 l 2
 162 22 140 0 112 0 c 0
 84 0 62 22 62 50 c 2
 62 650 l 2
 62 678 84 700 112 700 c 0
EndSplineSet
EndChar

StartChar: J
Encoding: 74 74 9
Width: 474
Flags: HMW
LayerCount: 2
Fore
SplineSet
237 100 m 0
 283 100 312 153 312 200 c 2
 312 650 l 2
 312 678 334 700 362 700 c 0
 390 700 412 678 412 650 c 2
 412 200 l 2
 412 98 341 0 237 0 c 0
 151 0 102 40 77 65 c 0
 68 74 62 86 62 100 c 0
 62 128 84 150 112 150 c 0
 126 150 138 144 147 135 c 0
 172 110 173 100 237 100 c 0
EndSplineSet
EndChar

StartChar: K
Encoding: 75 75 10
Width: 624
Flags: HMW
LayerCount: 2
Fore
SplineSet
562 50 m 0
 562 23 540 0 512 0 c 0
 496 0 481 8 472 20 c 2
 254 303 l 1
 162 205 l 1
 162 50 l 2
 162 22 140 0 112 0 c 0
 84 0 62 22 62 50 c 2
 62 650 l 2
 62 678 84 700 112 700 c 0
 140 700 162 678 162 650 c 2
 162 351 l 1
 476 684 l 2
 485 694 497 700 512 700 c 0
 540 700 562 677 562 650 c 0
 562 637 556 625 548 616 c 2
 324 377 l 1
 552 80 l 2
 558 72 562 61 562 50 c 0
EndSplineSet
EndChar

StartChar: L
Encoding: 76 76 11
Width: 524
Flags: HMW
LayerCount: 2
Fore
SplineSet
112 700 m 0
 140 700 162 678 162 650 c 2
 162 100 l 1
 412 100 l 2
 440 100 462 78 462 50 c 0
 462 22 440 0 412 0 c 2
 112 0 l 2
 84 0 62 22 62 50 c 2
 62 650 l 2
 62 678 84 700 112 700 c 0
EndSplineSet
EndChar

StartChar: M
Encoding: 77 77 12
Width: 724
Flags: HMW
LayerCount: 2
Fore
SplineSet
62 650 m 2
 62 677 84 700 112 700 c 0
 132 700 149 688 157 672 c 2
 362 262 l 1
 567 672 l 2
 575 688 592 700 612 700 c 0
 640 700 662 678 662 650 c 2
 662 50 l 2
 662 22 640 0 612 0 c 0
 584 0 562 22 562 50 c 2
 562 438 l 1
 407 128 l 2
 399 112 382 100 362 100 c 0
 342 100 325 112 317 128 c 2
 162 438 l 1
 162 50 l 2
 162 22 140 0 112 0 c 0
 84 0 62 22 62 50 c 2
 62 650 l 2
EndSplineSet
EndChar

StartChar: N
Encoding: 78 78 13
Width: 624
Flags: HMW
LayerCount: 2
Fore
SplineSet
512 700 m 0
 540 700 562 678 562 650 c 2
 562 50 l 2
 562 22 540 0 512 0 c 0
 495 0 479 9 470 22 c 2
 162 485 l 1
 162 50 l 2
 162 22 140 0 112 0 c 0
 84 0 62 22 62 50 c 2
 62 650 l 2
 62 678 84 700 112 700 c 0
 129 700 145 691 154 678 c 2
 462 215 l 1
 462 650 l 2
 462 678 484 700 512 700 c 0
EndSplineSet
EndChar

StartChar: O
Encoding: 79 79 14
Width: 624
Flags: HMW
LayerCount: 2
Fore
SplineSet
312 700 m 0
 464 700 562 575 562 450 c 2
 562 250 l 2
 562 125 464 0 312 0 c 0
 160 0 62 125 62 250 c 2
 62 450 l 2
 62 575 160 700 312 700 c 0
312 600 m 0
 214 600 162 525 162 450 c 2
 162 250 l 2
 162 175 214 100 312 100 c 0
 410 100 462 175 462 250 c 2
 462 450 l 2
 462 525 410 600 312 600 c 0
EndSplineSet
EndChar

StartChar: P
Encoding: 80 80 15
Width: 624
Flags: HMW
LayerCount: 2
Fore
SplineSet
562 500 m 0
 562 388 479 300 362 300 c 2
 162 300 l 1
 162 50 l 2
 162 22 140 0 112 0 c 0
 84 0 62 22 62 50 c 0
 62 250 62 450 62 650 c 0
 62 678 84 700 112 700 c 2
 362 700 l 2
 479 700 562 612 562 500 c 0
462 500 m 0
 462 559 426 600 362 600 c 2
 162 600 l 1
 162 400 l 1
 362 400 l 2
 426 400 462 441 462 500 c 0
EndSplineSet
EndChar

StartChar: Q
Encoding: 81 81 16
Width: 674
Flags: HMW
LayerCount: 2
Fore
SplineSet
612 50 m 0
 612 22 589 0 562 0 c 0
 550 0 539 4 531 11 c 2
 472 57 l 1
 430 22 376 0 312 0 c 0
 160 0 62 125 62 250 c 2
 62 450 l 2
 62 575 160 700 312 700 c 0
 464 700 562 575 562 450 c 2
 562 250 l 2
 562 210 552 171 534 135 c 1
 593 89 l 2
 605 80 612 66 612 50 c 0
287 225 m 0
 287 253 309 275 337 275 c 0
 349 275 360 271 368 264 c 2
 453 198 l 1
 459 215 462 232 462 250 c 2
 462 450 l 2
 462 525 410 600 312 600 c 0
 214 600 162 525 162 450 c 2
 162 250 l 2
 162 175 214 100 312 100 c 0
 343 100 369 108 391 120 c 1
 306 186 l 2
 294 195 287 209 287 225 c 0
EndSplineSet
EndChar

StartChar: R
Encoding: 82 82 17
Width: 624
Flags: HMW
LayerCount: 2
Fore
SplineSet
562 50 m 0
 562 23 541 0 512 0 c 0
 495 0 479 9 470 22 c 2
 285 300 l 1
 162 300 l 1
 162 50 l 2
 162 22 140 0 112 0 c 0
 84 0 62 22 62 50 c 0
 62 250 62 450 62 650 c 0
 62 678 84 700 112 700 c 2
 362 700 l 2
 479 700 562 612 562 500 c 0
 562 451 546 402 512 364 c 0
 486 334 448 312 403 304 c 1
 554 78 l 2
 559 70 562 60 562 50 c 0
462 500 m 0
 462 559 426 600 362 600 c 2
 162 600 l 1
 162 400 l 1
 362 400 l 2
 426 400 462 441 462 500 c 0
EndSplineSet
EndChar

StartChar: S
Encoding: 83 83 18
Width: 624
Flags: HMW
LayerCount: 2
Fore
SplineSet
62 150 m 0
 62 177 83 200 112 200 c 0
 129 200 145 191 154 178 c 0
 194 118 248 100 312 100 c 0
 417 100 462 158 462 200 c 0
 462 226 455 248 435 266 c 0
 415 284 379 300 312 300 c 0
 229 300 165 322 122 360 c 0
 79 398 62 451 62 500 c 0
 62 608 167 700 312 700 c 0
 398 700 494 668 554 578 c 0
 559 570 562 560 562 550 c 0
 562 523 541 500 512 500 c 0
 495 500 479 509 470 522 c 0
 430 582 376 600 312 600 c 0
 207 600 162 542 162 500 c 0
 162 474 169 452 189 434 c 0
 209 416 245 400 312 400 c 0
 395 400 459 378 502 340 c 0
 545 302 562 249 562 200 c 0
 562 92 457 0 312 0 c 0
 226 0 130 32 70 122 c 0
 65 130 62 140 62 150 c 0
EndSplineSet
EndChar

StartChar: T
Encoding: 84 84 19
Width: 624
Flags: HMW
LayerCount: 2
Fore
SplineSet
112 700 m 0
 245 700 379 700 512 700 c 0
 540 700 562 678 562 650 c 0
 562 622 540 600 512 600 c 2
 362 600 l 1
 362 50 l 2
 362 22 340 0 312 0 c 0
 284 0 262 22 262 50 c 2
 262 600 l 1
 112 600 l 2
 84 600 62 622 62 650 c 0
 62 678 84 700 112 700 c 0
EndSplineSet
EndChar

StartChar: U
Encoding: 85 85 20
Width: 624
Flags: HMW
LayerCount: 2
Fore
SplineSet
112 700 m 0
 140 700 162 678 162 650 c 2
 162 250 l 2
 162 175 214 100 312 100 c 0
 410 100 462 175 462 250 c 2
 462 650 l 2
 462 678 484 700 512 700 c 0
 540 700 562 678 562 650 c 2
 562 250 l 2
 562 125 464 0 312 0 c 0
 160 0 62 125 62 250 c 2
 62 650 l 2
 62 678 84 700 112 700 c 0
EndSplineSet
EndChar

StartChar: V
Encoding: 86 86 21
Width: 574
Flags: HMW
LayerCount: 2
Fore
SplineSet
487 700 m 0
 517 700 537 676 537 650 c 0
 537 644 536 639 534 634 c 2
 334 34 l 2
 327 14 309 0 287 0 c 0
 265 0 247 14 240 34 c 2
 40 634 l 2
 38 639 37 644 37 650 c 0
 37 676 57 700 87 700 c 0
 110 700 127 686 134 666 c 2
 287 208 l 1
 440 666 l 2
 447 686 465 700 487 700 c 0
EndSplineSet
EndChar

StartChar: W
Encoding: 87 87 22
Width: 874
Flags: HMW
LayerCount: 2
Fore
SplineSet
37 650 m 0
 37 676 57 700 87 700 c 0
 111 700 129 684 135 664 c 2
 262 229 l 1
 389 664 l 2
 395 685 414 700 437 700 c 0
 460 700 479 685 485 664 c 2
 612 229 l 1
 739 664 l 2
 745 685 764 700 787 700 c 0
 817 700 837 676 837 650 c 0
 837 645 836 640 835 636 c 2
 660 36 l 2
 654 15 635 0 612 0 c 0
 589 0 570 15 564 36 c 2
 437 471 l 1
 310 36 l 2
 304 15 285 0 262 0 c 0
 239 0 220 15 214 36 c 2
 39 636 l 2
 38 640 37 645 37 650 c 0
EndSplineSet
EndChar

StartChar: X
Encoding: 88 88 23
Width: 624
Flags: HMW
LayerCount: 2
Fore
SplineSet
62 650 m 0
 62 677 83 700 112 700 c 0
 131 700 145 691 154 678 c 2
 312 440 l 1
 470 678 l 2
 479 691 495 700 512 700 c 0
 541 700 562 677 562 650 c 0
 562 640 559 630 554 622 c 2
 372 350 l 1
 554 78 l 2
 559 70 562 60 562 50 c 0
 562 23 541 0 512 0 c 0
 495 0 479 9 470 22 c 2
 312 260 l 1
 154 22 l 2
 145 9 129 0 112 0 c 0
 83 0 62 23 62 50 c 0
 62 60 65 70 70 78 c 2
 252 350 l 1
 70 622 l 2
 65 630 62 640 62 650 c 0
EndSplineSet
EndChar

StartChar: Y
Encoding: 89 89 24
Width: 574
Flags: HMW
LayerCount: 2
Fore
SplineSet
37 650 m 0
 37 676 58 700 87 700 c 0
 106 700 121 690 130 675 c 2
 287 401 l 1
 444 675 l 2
 452 690 467 700 487 700 c 0
 516 700 537 676 537 650 c 0
 537 641 534 632 530 625 c 2
 337 287 l 1
 337 50 l 2
 337 22 315 0 287 0 c 0
 259 0 237 22 237 50 c 2
 237 287 l 1
 44 625 l 2
 40 632 37 641 37 650 c 0
EndSplineSet
EndChar

StartChar: Z
Encoding: 90 90 25
Width: 624
Flags: HMW
LayerCount: 2
Fore
SplineSet
112 700 m 2
 512 700 l 2
 540 700 562 678 562 650 c 0
 562 640 559 630 554 622 c 2
 205 100 l 1
 512 100 l 2
 540 100 562 78 562 50 c 0
 562 22 540 0 512 0 c 2
 112 0 l 2
 84 0 62 22 62 50 c 0
 62 60 65 70 70 78 c 2
 419 600 l 1
 112 600 l 2
 84 600 62 622 62 650 c 0
 62 678 84 700 112 700 c 2
EndSplineSet
EndChar

StartChar: a
Encoding: 97 97 27
Width: 549
Flags: HMW
LayerCount: 2
Fore
SplineSet
137 375 m 0
 111 375 87 396 87 425 c 0
 87 445 99 462 115 470 c 0
 171 498 212 500 262 500 c 0
 365 500 462 416 462 300 c 2
 462 100 l 1
 490 100 512 78 512 50 c 0
 512 22 490 0 462 0 c 0
 429 0 397 16 380 40 c 1
 346 15 305 0 262 0 c 2
 212 0 l 2
 137 0 62 61 62 150 c 0
 62 239 137 300 212 300 c 2
 362 300 l 1
 362 359 309 400 262 400 c 0
 253 400 246 400 239 400 c 0
 208 400 195 398 159 380 c 0
 152 377 145 375 137 375 c 0
212 200 m 2
 187 200 162 186 162 150 c 0
 162 114 187 100 212 100 c 2
 262 100 l 2
 309 100 362 141 362 200 c 1
 212 200 l 2
EndSplineSet
EndChar

StartChar: b
Encoding: 98 98 28
Width: 524
Flags: HMW
LayerCount: 2
Fore
SplineSet
112 700 m 0
 140 700 162 678 162 650 c 2
 162 473 l 1
 192 491 227 500 262 500 c 0
 365 500 462 416 462 300 c 2
 462 200 l 2
 462 84 365 0 262 0 c 0
 225 0 188 11 157 30 c 1
 149 12 132 0 112 0 c 0
 84 0 62 22 62 50 c 2
 62 650 l 2
 62 678 84 700 112 700 c 0
262 400 m 0
 215 400 162 359 162 300 c 2
 162 200 l 2
 162 141 215 100 262 100 c 0
 309 100 362 141 362 200 c 2
 362 300 l 2
 362 359 309 400 262 400 c 0
EndSplineSet
EndChar

StartChar: c
Encoding: 99 99 29
Width: 499
Flags: HMW
LayerCount: 2
Fore
SplineSet
387 125 m 0
 413 125 437 104 437 75 c 0
 437 55 425 38 409 30 c 0
 353 2 312 0 262 0 c 0
 159 0 62 84 62 200 c 2
 62 300 l 2
 62 416 159 500 262 500 c 0
 312 500 353 498 409 470 c 0
 425 462 437 445 437 425 c 0
 437 396 413 375 387 375 c 0
 379 375 372 377 365 380 c 0
 329 398 316 400 285 400 c 0
 278 400 271 400 262 400 c 0
 215 400 162 359 162 300 c 2
 162 200 l 2
 162 141 215 100 262 100 c 0
 271 100 278 100 285 100 c 0
 316 100 329 102 365 120 c 0
 372 123 379 125 387 125 c 0
EndSplineSet
EndChar

StartChar: e
Encoding: 101 101 31
Width: 524
Flags: HMW
LayerCount: 2
Fore
SplineSet
387 125 m 0
 413 125 437 104 437 75 c 0
 437 55 425 38 409 30 c 0
 353 2 312 0 262 0 c 0
 159 0 62 84 62 200 c 0
 62 233 62 267 62 300 c 0
 62 416 159 500 262 500 c 0
 365 500 462 416 462 300 c 2
 462 250 l 2
 462 222 440 200 412 200 c 2
 162 200 l 1
 162 141 215 100 262 100 c 0
 271 100 278 100 285 100 c 0
 316 100 329 102 365 120 c 0
 372 123 379 125 387 125 c 0
262 400 m 0
 215 400 162 359 162 300 c 1
 362 300 l 1
 362 359 309 400 262 400 c 0
EndSplineSet
EndChar

StartChar: f
Encoding: 102 102 32
Width: 349
Flags: HMW
LayerCount: 2
Fore
SplineSet
237 700 m 0
 265 700 287 678 287 650 c 0
 287 622 265 600 237 600 c 0
 201 600 187 575 187 550 c 2
 187 500 l 1
 237 500 l 2
 265 500 287 478 287 450 c 0
 287 422 265 400 237 400 c 2
 187 400 l 1
 187 50 l 2
 187 22 165 0 137 0 c 0
 109 0 87 22 87 50 c 2
 87 400 l 1
 59 400 37 422 37 450 c 0
 37 478 59 500 87 500 c 1
 87 550 l 2
 87 625 148 700 237 700 c 0
EndSplineSet
EndChar

StartChar: g
Encoding: 103 103 33
Width: 524
Flags: HMW
LayerCount: 2
Fore
SplineSet
87 -125 m 0
 87 -96 111 -75 137 -75 c 0
 145 -75 152 -77 159 -80 c 0
 195 -98 208 -100 239 -100 c 0
 246 -100 253 -100 262 -100 c 0
 309 -100 362 -59 362 0 c 2
 362 27 l 1
 332 9 297 0 262 0 c 0
 159 0 62 84 62 200 c 2
 62 300 l 2
 62 416 159 500 262 500 c 0
 299 500 336 489 367 470 c 1
 375 488 392 500 412 500 c 0
 440 500 462 478 462 450 c 2
 462 0 l 2
 462 -116 365 -200 262 -200 c 0
 212 -200 171 -198 115 -170 c 0
 99 -162 87 -145 87 -125 c 0
262 400 m 0
 215 400 162 359 162 300 c 2
 162 200 l 2
 162 141 215 100 262 100 c 0
 309 100 362 141 362 200 c 2
 362 300 l 2
 362 359 309 400 262 400 c 0
EndSplineSet
EndChar

StartChar: h
Encoding: 104 104 34
Width: 524
Flags: HMW
LayerCount: 2
Fore
SplineSet
112 700 m 0
 140 700 162 678 162 650 c 2
 162 473 l 1
 192 491 227 500 262 500 c 0
 365 500 462 416 462 300 c 2
 462 50 l 2
 462 22 440 0 412 0 c 0
 384 0 362 22 362 50 c 2
 362 300 l 2
 362 359 309 400 262 400 c 0
 215 400 162 359 162 300 c 2
 162 50 l 2
 162 22 140 0 112 0 c 0
 84 0 62 22 62 50 c 0
 62 250 62 450 62 650 c 0
 62 678 84 700 112 700 c 0
EndSplineSet
EndChar

StartChar: i
Encoding: 105 105 35
Width: 248
Flags: HMW
LayerCount: 2
Fore
SplineSet
124 712 m 0
 158 712 186 684 186 650 c 0
 186 616 158 588 124 588 c 0
 90 588 62 616 62 650 c 0
 62 684 90 712 124 712 c 0
124 500 m 0
 152 500 174 478 174 450 c 2
 174 50 l 2
 174 22 152 0 124 0 c 0
 96 0 74 22 74 50 c 2
 74 450 l 2
 74 478 96 500 124 500 c 0
EndSplineSet
EndChar

StartChar: j
Encoding: 106 106 36
Width: 286
Flags: HMW
LayerCount: 2
Fore
SplineSet
162 712 m 0
 196 712 224 684 224 650 c 0
 224 616 196 588 162 588 c 0
 128 588 100 616 100 650 c 0
 100 684 128 712 162 712 c 0
162 500 m 0
 190 500 212 478 212 450 c 2
 212 -50 l 2
 212 -125 151 -200 62 -200 c 0
 34 -200 12 -178 12 -150 c 0
 12 -122 34 -100 62 -100 c 0
 98 -100 112 -75 112 -50 c 2
 112 450 l 2
 112 478 134 500 162 500 c 0
EndSplineSet
EndChar

StartChar: k
Encoding: 107 107 37
Width: 524
Flags: HMW
LayerCount: 2
Fore
SplineSet
462 50 m 0
 462 24 441 0 412 0 c 0
 394 0 378 10 369 24 c 2
 257 208 l 1
 162 104 l 1
 162 50 l 2
 162 22 140 0 112 0 c 0
 84 0 62 22 62 50 c 2
 62 650 l 2
 62 678 84 700 112 700 c 0
 140 700 162 678 162 650 c 2
 162 252 l 1
 375 484 l 2
 384 494 397 500 412 500 c 0
 440 500 462 477 462 450 c 0
 462 437 457 425 449 416 c 2
 327 284 l 1
 455 76 l 2
 460 68 462 60 462 50 c 0
EndSplineSet
EndChar

StartChar: l
Encoding: 108 108 38
Width: 249
Flags: HMW
LayerCount: 2
Fore
SplineSet
112 700 m 0
 140 700 162 678 162 650 c 2
 162 100 l 1
 190 100 212 78 212 50 c 0
 212 22 190 0 162 0 c 0
 132 0 103 13 85 34 c 0
 67 55 62 79 62 100 c 2
 62 650 l 2
 62 678 84 700 112 700 c 0
EndSplineSet
EndChar

StartChar: m
Encoding: 109 109 39
Width: 824
Flags: HMW
LayerCount: 2
Fore
SplineSet
112 500 m 0
 132 500 150 488 158 470 c 1
 189 489 225 500 262 500 c 0
 319 500 374 475 412 432 c 1
 450 475 505 500 562 500 c 0
 665 500 762 416 762 300 c 2
 762 50 l 2
 762 22 740 0 712 0 c 0
 684 0 662 22 662 50 c 2
 662 300 l 2
 662 359 609 400 562 400 c 0
 515 400 462 359 462 300 c 2
 462 50 l 2
 462 22 440 0 412 0 c 0
 384 0 362 22 362 50 c 2
 362 300 l 2
 362 359 309 400 262 400 c 0
 215 400 162 359 162 300 c 2
 162 50 l 2
 162 22 140 0 112 0 c 0
 84 0 62 22 62 50 c 0
 62 183 62 317 62 450 c 0
 62 478 84 500 112 500 c 0
EndSplineSet
EndChar

StartChar: n
Encoding: 110 110 40
Width: 524
Flags: HMW
LayerCount: 2
Fore
SplineSet
112 500 m 0
 132 500 150 488 158 470 c 1
 189 489 225 500 262 500 c 0
 365 500 462 416 462 300 c 2
 462 50 l 2
 462 22 440 0 412 0 c 0
 384 0 362 22 362 50 c 2
 362 300 l 2
 362 359 309 400 262 400 c 0
 215 400 162 359 162 300 c 2
 162 50 l 2
 162 22 140 0 112 0 c 0
 84 0 62 22 62 50 c 0
 62 183 62 317 62 450 c 0
 62 478 84 500 112 500 c 0
EndSplineSet
EndChar

StartChar: o
Encoding: 111 111 41
Width: 524
Flags: HMW
LayerCount: 2
Fore
SplineSet
262 500 m 0
 365 500 462 416 462 300 c 2
 462 200 l 2
 462 84 365 0 262 0 c 0
 159 0 62 84 62 200 c 2
 62 300 l 2
 62 416 159 500 262 500 c 0
262 400 m 0
 215 400 162 359 162 300 c 2
 162 200 l 2
 162 141 215 100 262 100 c 0
 309 100 362 141 362 200 c 2
 362 300 l 2
 362 359 309 400 262 400 c 0
EndSplineSet
EndChar

StartChar: r
Encoding: 114 114 44
Width: 424
Flags: HMW
LayerCount: 2
Fore
SplineSet
362 441 m 0
 362 411 338 391 312 391 c 0
 306 391 300 392 295 394 c 0
 284 398 273 400 262 400 c 0
 215 400 162 359 162 300 c 2
 162 50 l 2
 162 22 140 0 112 0 c 0
 84 0 62 22 62 50 c 0
 62 183 62 317 62 450 c 0
 62 478 84 500 112 500 c 0
 132 500 150 488 158 470 c 1
 189 489 225 500 262 500 c 0
 307 500 362 487 362 441 c 0
EndSplineSet
EndChar

StartChar: s
Encoding: 115 115 45
Width: 524
Flags: HMW
LayerCount: 2
Fore
SplineSet
62 350 m 0
 62 450 160 500 262 500 c 0
 312 500 368 497 438 455 c 0
 453 446 462 430 462 412 c 0
 462 383 439 363 412 363 c 0
 403 363 394 365 386 370 c 0
 339 398 318 400 281 400 c 0
 275 400 269 400 262 400 c 0
 225 400 197 391 181 381 c 0
 165 371 162 365 162 350 c 0
 162 335 165 329 181 319 c 0
 197 309 225 300 262 300 c 0
 364 300 462 250 462 150 c 0
 462 50 364 0 262 0 c 0
 212 0 156 3 86 45 c 0
 71 54 62 70 62 88 c 0
 62 117 85 137 112 137 c 0
 121 137 130 135 138 130 c 0
 185 102 206 100 243 100 c 0
 249 100 255 100 262 100 c 0
 299 100 327 109 343 119 c 0
 359 129 362 135 362 150 c 0
 362 165 359 171 343 181 c 0
 327 191 299 200 262 200 c 0
 160 200 62 250 62 350 c 0
EndSplineSet
EndChar

StartChar: t
Encoding: 116 116 46
Width: 349
Flags: HMW
LayerCount: 2
Fore
SplineSet
137 650 m 0
 165 650 187 628 187 600 c 2
 187 500 l 1
 237 500 l 2
 265 500 287 478 287 450 c 0
 287 422 265 400 237 400 c 2
 187 400 l 1
 187 150 l 2
 187 125 201 100 237 100 c 0
 265 100 287 78 287 50 c 0
 287 22 265 0 237 0 c 0
 148 0 87 75 87 150 c 2
 87 400 l 1
 59 400 37 422 37 450 c 0
 37 478 59 500 87 500 c 1
 87 600 l 2
 87 628 109 650 137 650 c 0
EndSplineSet
EndChar

StartChar: v
Encoding: 118 118 48
Width: 474
Flags: HMW
LayerCount: 2
Fore
SplineSet
37 450 m 0
 37 476 57 500 87 500 c 0
 109 500 127 487 134 468 c 2
 237 192 l 1
 340 468 l 2
 347 487 366 500 387 500 c 0
 417 500 437 476 437 450 c 0
 437 444 436 437 434 432 c 2
 284 32 l 2
 277 13 258 0 237 0 c 0
 216 0 197 13 190 32 c 2
 40 432 l 2
 38 437 37 444 37 450 c 0
EndSplineSet
EndChar

StartChar: w
Encoding: 119 119 49
Width: 674
Flags: HMW
LayerCount: 2
Fore
SplineSet
37 450 m 0
 37 476 57 500 87 500 c 0
 110 500 129 485 135 465 c 2
 212 218 l 1
 289 465 l 2
 295 485 315 500 337 500 c 0
 359 500 379 485 385 465 c 2
 462 218 l 1
 539 465 l 2
 545 485 564 500 587 500 c 0
 617 500 637 476 637 450 c 0
 637 445 636 440 635 435 c 2
 510 35 l 2
 504 15 484 0 462 0 c 0
 440 0 420 15 414 35 c 2
 337 282 l 1
 260 35 l 2
 254 15 234 0 212 0 c 0
 190 0 170 15 164 35 c 2
 39 435 l 2
 38 440 37 445 37 450 c 0
EndSplineSet
EndChar

StartChar: x
Encoding: 120 120 50
Width: 524
Flags: HMW
LayerCount: 2
Fore
SplineSet
62 450 m 0
 62 477 83 500 112 500 c 0
 130 500 143 492 152 480 c 2
 262 333 l 1
 372 480 l 2
 381 492 394 500 412 500 c 0
 441 500 462 477 462 450 c 0
 462 439 458 428 452 420 c 2
 324 250 l 1
 452 80 l 2
 458 72 462 61 462 50 c 0
 462 23 440 0 412 0 c 0
 396 0 381 8 372 20 c 2
 262 167 l 1
 152 20 l 2
 143 8 128 0 112 0 c 0
 83 0 62 23 62 50 c 0
 62 61 66 72 72 80 c 2
 200 250 l 1
 72 420 l 2
 66 428 62 439 62 450 c 0
EndSplineSet
EndChar

StartChar: y
Encoding: 121 121 51
Width: 474
Flags: HMW
LayerCount: 2
Fore
SplineSet
37 450 m 0
 37 476 57 500 87 500 c 0
 109 500 127 487 134 468 c 2
 237 192 l 1
 340 468 l 2
 347 487 366 500 387 500 c 0
 417 500 437 476 437 450 c 0
 437 444 436 437 434 432 c 2
 228 -118 l 2
 208 -171 154 -200 112 -200 c 0
 84 -200 62 -178 62 -150 c 0
 62 -122 84 -100 112 -100 c 0
 113 -100 114 -100 115 -100 c 0
 121 -100 127 -99 135 -81 c 1
 184 50 l 1
 40 432 l 2
 38 437 37 444 37 450 c 0
EndSplineSet
EndChar

StartChar: z
Encoding: 122 122 52
Width: 524
Flags: HMW
LayerCount: 2
Fore
SplineSet
112 500 m 2
 412 500 l 2
 440 500 462 478 462 450 c 0
 462 439 458 428 452 420 c 2
 212 100 l 1
 412 100 l 2
 440 100 462 78 462 50 c 0
 462 22 440 0 412 0 c 2
 112 0 l 2
 84 0 62 22 62 50 c 0
 62 61 66 72 72 80 c 2
 312 400 l 1
 112 400 l 2
 84 400 62 422 62 450 c 0
 62 478 84 500 112 500 c 2
EndSplineSet
EndChar

StartChar: comma
Encoding: 44 44 53
Width: 274
Flags: HMW
LayerCount: 2
Fore
SplineSet
112 -100 m 0
 85 -100 62 -79 62 -50 c 0
 62 -33 71 -17 84 -8 c 0
 98 2 103 7 106 13 c 0
 109 19 112 29 112 50 c 0
 112 78 134 100 162 100 c 0
 190 100 212 78 212 50 c 0
 212 21 209 -7 196 -32 c 0
 183 -57 163 -77 140 -92 c 0
 132 -97 122 -100 112 -100 c 0
EndSplineSet
EndChar

StartChar: period
Encoding: 46 46 54
Width: 248
Flags: HMW
LayerCount: 2
Fore
SplineSet
124 125 m 0
 158 125 186 96 186 62 c 0
 186 28 158 0 124 0 c 0
 90 0 62 28 62 62 c 0
 62 96 90 125 124 125 c 0
EndSplineSet
EndChar

StartChar: exclam
Encoding: 33 33 57
Width: 248
Flags: HMW
LayerCount: 2
Fore
SplineSet
124 700 m 0
 152 700 174 678 174 650 c 2
 174 225 l 2
 174 197 152 175 124 175 c 0
 96 175 74 197 74 225 c 2
 74 650 l 2
 74 678 96 700 124 700 c 0
124 125 m 0
 158 125 186 96 186 62 c 0
 186 28 158 0 124 0 c 0
 90 0 62 28 62 62 c 0
 62 96 90 125 124 125 c 0
EndSplineSet
EndChar

StartChar: question
Encoding: 63 63 58
Width: 524
Flags: HMW
LayerCount: 2
Fore
SplineSet
112 500 m 0
 82 500 62 524 62 550 c 0
 62 556 63 561 65 566 c 0
 92 648 162 700 262 700 c 0
 373 700 462 611 462 500 c 0
 462 452 450 412 430 383 c 0
 410 354 386 336 367 322 c 0
 348 308 335 298 327 286 c 0
 319 274 312 258 312 225 c 0
 312 197 290 175 262 175 c 0
 234 175 212 197 212 225 c 0
 212 273 224 313 244 342 c 0
 264 371 288 388 307 402 c 0
 326 416 339 427 347 439 c 0
 355 451 362 467 362 500 c 0
 362 564 326 600 262 600 c 0
 205 600 175 581 159 534 c 0
 152 514 134 500 112 500 c 0
262 125 m 0
 296 125 324 96 324 62 c 0
 324 28 296 0 262 0 c 0
 228 0 200 28 200 62 c 0
 200 96 228 125 262 125 c 0
EndSplineSet
EndChar

StartChar: hyphen
Encoding: 45 45 63
Width: 424
Flags: HMW
LayerCount: 2
Fore
SplineSet
112 300 m 2
 312 300 l 2
 340 300 362 278 362 250 c 0
 362 222 340 200 312 200 c 2
 112 200 l 2
 84 200 62 222 62 250 c 0
 62 278 84 300 112 300 c 2
EndSplineSet
EndChar

StartChar: endash
Encoding: 8211 8211 64
Width: 624
Flags: HMW
LayerCount: 2
Fore
SplineSet
112 300 m 2
 512 300 l 2
 540 300 562 278 562 250 c 0
 562 222 540 200 512 200 c 2
 112 200 l 2
 84 200 62 222 62 250 c 0
 62 278 84 300 112 300 c 2
EndSplineSet
EndChar

StartChar: emdash
Encoding: 8212 8212 65
Width: 1124
Flags: HMW
LayerCount: 2
Fore
SplineSet
112 300 m 2
 1012 300 l 2
 1040 300 1062 278 1062 250 c 0
 1062 222 1040 200 1012 200 c 2
 112 200 l 2
 84 200 62 222 62 250 c 0
 62 278 84 300 112 300 c 2
EndSplineSet
EndChar

StartChar: quotesingle
Encoding: 39 39 66
Width: 224
Flags: HMW
LayerCount: 2
Fore
SplineSet
112 700 m 0
 140 700 162 678 162 650 c 2
 162 550 l 2
 162 522 140 500 112 500 c 0
 84 500 62 522 62 550 c 2
 62 650 l 2
 62 678 84 700 112 700 c 0
EndSplineSet
EndChar

StartChar: zero
Encoding: 48 48 68
Width: 524
Flags: HMW
LayerCount: 2
Fore
SplineSet
262 700 m 0
 365 700 462 616 462 500 c 2
 462 200 l 2
 462 84 365 0 262 0 c 0
 159 0 62 84 62 200 c 2
 62 500 l 2
 62 616 159 700 262 700 c 0
262 600 m 0
 215 600 162 559 162 500 c 2
 162 200 l 2
 162 141 215 100 262 100 c 0
 309 100 362 141 362 200 c 2
 362 500 l 2
 362 559 309 600 262 600 c 0
EndSplineSet
EndChar

StartChar: one
Encoding: 49 49 69
Width: 312
Flags: HMW
LayerCount: 2
Fore
SplineSet
100 500 m 0
 72 500 50 522 50 550 c 0
 50 564 56 576 65 585 c 2
 165 685 l 2
 174 694 186 700 200 700 c 0
 228 700 250 678 250 650 c 2
 250 50 l 2
 250 22 228 0 200 0 c 0
 172 0 150 22 150 50 c 2
 150 529 l 1
 135 515 l 2
 126 506 114 500 100 500 c 0
EndSplineSet
EndChar

StartChar: two
Encoding: 50 50 70
Width: 524
Flags: HMW
LayerCount: 2
Fore
SplineSet
112 550 m 0
 85 550 62 572 62 600 c 0
 62 616 70 630 81 639 c 0
 154 697 224 700 262 700 c 0
 365 700 462 616 462 500 c 0
 462 393 399 329 351 269 c 2
 216 100 l 1
 412 100 l 2
 440 100 462 78 462 50 c 0
 462 22 440 0 412 0 c 2
 112 0 l 2
 84 0 62 22 62 50 c 0
 62 62 66 72 73 81 c 2
 273 331 l 2
 325 396 362 432 362 500 c 0
 362 559 309 600 262 600 c 0
 258 600 253 600 249 600 c 0
 217 600 189 598 143 561 c 0
 134 554 124 550 112 550 c 0
EndSplineSet
EndChar

StartChar: three
Encoding: 51 51 71
Width: 524
Flags: HMW
LayerCount: 2
Fore
SplineSet
112 550 m 0
 85 550 62 572 62 600 c 0
 62 616 70 630 81 639 c 0
 154 697 224 700 262 700 c 0
 365 700 462 616 462 500 c 0
 462 438 434 386 393 350 c 1
 434 314 462 262 462 200 c 0
 462 84 365 0 262 0 c 0
 224 0 154 3 81 61 c 0
 70 70 62 84 62 100 c 0
 62 128 85 150 112 150 c 0
 124 150 134 146 143 139 c 0
 189 102 217 100 249 100 c 0
 253 100 258 100 262 100 c 0
 309 100 362 141 362 200 c 0
 362 259 309 300 262 300 c 2
 212 300 l 2
 184 300 162 322 162 350 c 0
 162 378 184 400 212 400 c 2
 262 400 l 2
 309 400 362 441 362 500 c 0
 362 559 309 600 262 600 c 0
 258 600 253 600 249 600 c 0
 217 600 189 598 143 561 c 0
 134 554 124 550 112 550 c 0
EndSplineSet
EndChar

StartChar: four
Encoding: 52 52 72
Width: 499
Flags: HMW
LayerCount: 2
Fore
SplineSet
312 687 m 0
 342 687 362 663 362 637 c 0
 362 630 360 625 358 619 c 2
 187 200 l 1
 312 200 l 1
 312 300 l 2
 312 328 334 350 362 350 c 0
 390 350 412 328 412 300 c 2
 412 200 l 1
 440 200 462 178 462 150 c 0
 462 122 440 100 412 100 c 1
 412 50 l 2
 412 22 390 0 362 0 c 0
 334 0 312 22 312 50 c 2
 312 100 l 1
 112 100 l 2
 84 100 62 122 62 150 c 0
 62 157 64 163 66 169 c 2
 266 656 l 2
 273 674 291 688 312 688 c 0
 312 687 l 0
EndSplineSet
EndChar

StartChar: five
Encoding: 53 53 73
Width: 524
Flags: HMW
LayerCount: 2
Fore
SplineSet
62 100 m 0
 62 128 85 150 112 150 c 0
 124 150 134 146 143 139 c 0
 189 102 217 100 249 100 c 0
 253 100 258 100 262 100 c 0
 309 100 362 141 362 200 c 2
 362 250 l 2
 362 309 309 350 262 350 c 0
 258 350 253 350 249 350 c 0
 217 350 189 348 143 311 c 0
 134 304 124 300 112 300 c 0
 84 300 62 322 62 350 c 2
 62 650 l 2
 62 678 84 700 112 700 c 2
 412 700 l 2
 440 700 462 678 462 650 c 0
 462 622 440 600 412 600 c 2
 162 600 l 1
 162 434 l 1
 203 448 239 450 262 450 c 0
 365 450 462 366 462 250 c 2
 462 200 l 2
 462 84 365 0 262 0 c 0
 224 0 154 3 81 61 c 0
 70 70 62 84 62 100 c 0
EndSplineSet
EndChar

StartChar: seven
Encoding: 55 55 75
Width: 524
Flags: HMW
LayerCount: 2
Fore
SplineSet
212 0 m 0
 182 0 162 24 162 50 c 0
 162 56 163 61 165 66 c 2
 343 600 l 1
 162 600 l 1
 162 550 l 2
 162 522 140 500 112 500 c 0
 84 500 62 522 62 550 c 2
 62 650 l 2
 62 678 84 700 112 700 c 2
 412 700 l 2
 440 700 462 678 462 650 c 0
 462 644 461 639 459 634 c 2
 259 34 l 2
 252 14 234 0 212 0 c 0
EndSplineSet
EndChar

StartChar: eight
Encoding: 56 56 76
Width: 524
Flags: HMW
LayerCount: 2
Fore
SplineSet
262 700 m 0
 365 700 450 613 450 506 c 0
 450 450 426 400 390 365 c 1
 433 329 462 275 462 212 c 2
 462 200 l 2
 462 84 365 0 262 0 c 0
 159 0 62 84 62 200 c 2
 62 212 l 2
 62 275 91 329 134 365 c 1
 98 400 74 450 74 506 c 0
 74 613 159 700 262 700 c 0
262 600 m 0
 215 600 174 562 174 506 c 0
 174 450 215 412 262 412 c 0
 309 412 350 450 350 506 c 0
 350 562 309 600 262 600 c 0
262 312 m 0
 215 312 162 271 162 212 c 2
 162 200 l 2
 162 141 215 100 262 100 c 0
 309 100 362 141 362 200 c 2
 362 212 l 2
 362 271 309 312 262 312 c 0
EndSplineSet
EndChar

StartChar: nine
Encoding: 57 57 77
Width: 524
Flags: HMW
LayerCount: 2
Fore
SplineSet
74 100 m 0
 74 128 97 150 125 150 c 0
 139 150 151 144 160 135 c 0
 193 102 218 100 248 100 c 0
 253 100 257 100 262 100 c 0
 309 100 362 141 362 200 c 2
 362 277 l 1
 332 259 297 250 262 250 c 0
 159 250 62 334 62 450 c 2
 62 500 l 2
 62 616 159 700 262 700 c 0
 365 700 462 616 462 500 c 0
 462 400 462 300 462 200 c 0
 462 84 365 0 262 0 c 0
 224 0 151 3 89 65 c 0
 80 74 74 86 74 100 c 0
262 600 m 0
 215 600 162 559 162 500 c 2
 162 450 l 2
 162 391 215 350 262 350 c 0
 309 350 362 391 362 450 c 2
 362 500 l 2
 362 559 309 600 262 600 c 0
EndSplineSet
EndChar

StartChar: uniE652
Encoding: 58962 58962 78
Width: 224
Flags: HMW
LayerCount: 2
Fore
SplineSet
112 800 m 0
 140 800 162 778 162 750 c 2
 162 50 l 2
 162 22 140 0 112 0 c 0
 84 0 62 22 62 50 c 2
 62 750 l 2
 62 778 84 800 112 800 c 0
EndSplineSet
EndChar

StartChar: uniE653
Encoding: 58963 58963 79
Width: 399
Flags: HMW
LayerCount: 2
Fore
SplineSet
312 0 m 0
 340 0 362 -22 362 -50 c 0
 362 -64 356 -76 347 -85 c 2
 147 -285 l 2
 138 -294 126 -300 112 -300 c 0
 84 -300 62 -278 62 -250 c 2
 62 450 l 2
 62 478 84 500 112 500 c 0
 140 500 162 478 162 450 c 2
 162 -129 l 1
 277 -15 l 2
 286 -6 298 0 312 0 c 0
EndSplineSet
EndChar

StartChar: uniE654
Encoding: 58964 58964 80
Width: 474
Flags: HMW
LayerCount: 2
Fore
SplineSet
112 750 m 0
 112 776 133 800 162 800 c 0
 181 800 196 790 205 775 c 2
 405 425 l 2
 409 418 412 409 412 400 c 0
 412 372 390 350 362 350 c 0
 348 350 336 356 327 365 c 0
 302 390 295 400 262 400 c 0
 215 400 162 359 162 300 c 2
 162 250 l 2
 162 167 229 100 312 100 c 2
 362 100 l 2
 390 100 412 78 412 50 c 0
 412 22 390 0 362 0 c 2
 312 0 l 2
 175 0 62 113 62 250 c 2
 62 300 l 2
 62 411 151 492 248 499 c 1
 119 725 l 2
 115 732 112 741 112 750 c 0
EndSplineSet
EndChar

StartChar: uniE658
Encoding: 58968 58968 81
Width: 524
Flags: HMW
LayerCount: 2
Fore
SplineSet
262 800 m 0
 365 800 462 716 462 600 c 0
 462 467 462 333 462 200 c 0
 462 84 365 0 262 0 c 0
 159 0 62 84 62 200 c 2
 62 300 l 2
 62 416 159 500 262 500 c 2
 362 500 l 1
 362 600 l 2
 362 659 309 700 262 700 c 0
 234 700 212 722 212 750 c 0
 212 778 234 800 262 800 c 0
262 400 m 2
 215 400 162 359 162 300 c 2
 162 200 l 2
 162 141 215 100 262 100 c 0
 309 100 362 141 362 200 c 2
 362 400 l 1
 262 400 l 2
EndSplineSet
EndChar

StartChar: uniE659
Encoding: 58969 58969 82
Width: 524
Flags: HMW
LayerCount: 2
Fore
SplineSet
400 -150 m 4
 428 -150 450 -172 450 -200 c 0
 450 -214 444 -226 435 -235 c 0
 373 -297 300 -300 262 -300 c 0
 159 -300 62 -216 62 -100 c 0
 62 33 62 167 62 300 c 0
 62 416 159 500 262 500 c 0
 365 500 462 416 462 300 c 2
 462 200 l 2
 462 84 365 0 262 0 c 2
 162 0 l 1
 162 -100 l 2
 162 -159 215 -200 262 -200 c 0
 267 -200 271 -200 276 -200 c 0
 306 -200 331 -198 364 -165 c 0
 373 -156 386 -150 400 -150 c 4
262 400 m 0
 215 400 162 359 162 300 c 2
 162 100 l 1
 262 100 l 2
 309 100 362 141 362 200 c 2
 362 300 l 2
 362 359 309 400 262 400 c 0
EndSplineSet
EndChar

StartChar: uniE660
Encoding: 58976 58976 83
Width: 499
Flags: HMW
LayerCount: 2
Fore
SplineSet
262 800 m 0
 365 800 462 716 462 600 c 0
 462 484 365 400 262 400 c 2
 162 400 l 1
 162 50 l 2
 162 22 140 0 112 0 c 0
 84 0 62 22 62 50 c 0
 62 233 62 417 62 600 c 0
 62 716 159 800 262 800 c 0
262 700 m 0
 215 700 162 659 162 600 c 2
 162 500 l 1
 262 500 l 2
 309 500 362 541 362 600 c 0
 362 659 309 700 262 700 c 0
EndSplineSet
EndChar

StartChar: uniE661
Encoding: 58977 58977 84
Width: 374
Flags: HMW
LayerCount: 2
Fore
SplineSet
287 500 m 0
 317 500 337 476 337 450 c 0
 337 445 336 440 335 436 c 2
 135 -264 l 2
 129 -285 110 -300 87 -300 c 0
 57 -300 37 -276 37 -250 c 0
 37 -245 38 -240 39 -236 c 2
 239 464 l 2
 245 484 263 500 287 500 c 0
EndSplineSet
EndChar

StartChar: uniE662
Encoding: 58978 58978 85
Width: 400
Flags: HMW
LayerCount: 2
Fore
SplineSet
312 800 m 0
 340 800 362 778 362 750 c 0
 362 722 340 700 312 700 c 0
 229 700 162 633 162 550 c 2
 162 50 l 2
 162 22 140 0 112 0 c 0
 84 0 62 22 62 50 c 2
 62 550 l 2
 62 687 175 800 312 800 c 0
EndSplineSet
EndChar

StartChar: uniE663
Encoding: 58979 58979 86
Width: 524
Flags: HMW
LayerCount: 2
Fore
SplineSet
412 500 m 0
 442 500 462 476 462 450 c 0
 462 445 461 440 460 436 c 2
 260 -264 l 2
 254 -285 235 -300 212 -300 c 0
 192 -300 175 -288 167 -272 c 2
 67 -72 l 2
 64 -65 62 -58 62 -50 c 0
 62 -24 83 0 112 0 c 0
 132 0 149 -12 157 -28 c 2
 199 -113 l 1
 364 464 l 2
 370 484 388 500 412 500 c 0
EndSplineSet
EndChar

StartChar: uniE664
Encoding: 58980 58980 87
Width: 524
Flags: HMW
LayerCount: 2
Fore
SplineSet
112 0 m 0
 84 0 62 22 62 50 c 0
 62 64 68 76 77 85 c 2
 191 200 l 1
 140 250 62 324 62 425 c 2
 62 600 l 2
 62 716 159 800 262 800 c 0
 365 800 462 716 462 600 c 2
 462 425 l 2
 462 324 384 250 333 200 c 1
 447 85 l 2
 456 76 462 64 462 50 c 0
 462 22 440 0 412 0 c 0
 398 0 386 6 377 15 c 2
 262 129 l 1
 147 15 l 2
 138 6 126 0 112 0 c 0
262 700 m 0
 215 700 162 659 162 600 c 2
 162 425 l 2
 162 386 214 320 262 271 c 1
 310 320 362 386 362 425 c 2
 362 600 l 2
 362 659 309 700 262 700 c 0
EndSplineSet
EndChar

StartChar: uniE665
Encoding: 58981 58981 88
Width: 524
Flags: HMW
LayerCount: 2
Fore
SplineSet
312 500 m 2
 362 500 l 2
 390 500 412 478 412 450 c 0
 412 422 390 400 362 400 c 2
 312 400 l 2
 229 400 162 333 162 250 c 2
 162 100 l 1
 262 100 l 2
 365 100 462 16 462 -100 c 2
 462 -250 l 2
 462 -278 440 -300 412 -300 c 2
 262 -300 l 2
 159 -300 62 -216 62 -100 c 0
 62 17 62 133 62 250 c 0
 62 387 175 500 312 500 c 2
162 0 m 1
 162 -100 l 2
 162 -159 215 -200 262 -200 c 2
 362 -200 l 1
 362 -100 l 2
 362 -41 309 0 262 0 c 2
 162 0 l 1
EndSplineSet
EndChar

StartChar: uniE666
Encoding: 58982 58982 89
Width: 474
Flags: HMW
LayerCount: 2
Fore
SplineSet
62 450 m 0
 62 478 84 500 112 500 c 0
 124 500 134 496 142 490 c 2
 237 419 l 1
 332 490 l 2
 340 496 351 500 362 500 c 0
 389 500 412 478 412 450 c 0
 412 434 404 419 392 410 c 2
 320 356 l 1
 342 340 l 2
 344 339 345 337 347 335 c 0
 390 292 412 256 412 183 c 0
 412 180 412 178 412 175 c 0
 412 126 395 81 363 49 c 0
 331 17 286 0 237 0 c 0
 188 0 143 17 111 49 c 0
 79 81 62 126 62 175 c 0
 62 178 62 180 62 183 c 0
 62 256 84 292 127 335 c 0
 129 337 130 339 132 340 c 2
 154 356 l 1
 82 410 l 2
 70 419 62 434 62 450 c 0
237 294 m 1
 195 263 l 1
 175 242 169 231 166 222 c 0
 163 213 162 200 162 175 c 0
 162 149 170 132 182 120 c 0
 194 108 211 100 237 100 c 0
 263 100 280 108 292 120 c 0
 304 132 312 149 312 175 c 0
 312 200 311 213 308 222 c 0
 305 231 299 242 279 263 c 1
 237 294 l 1
EndSplineSet
EndChar

StartChar: uniE667
Encoding: 58983 58983 90
Width: 524
Flags: HMW
LayerCount: 2
Fore
SplineSet
412 500 m 0
 440 500 462 478 462 450 c 2
 462 400 l 2
 462 316 412 250 345 219 c 1
 356 198 362 175 362 150 c 0
 362 68 294 0 212 0 c 2
 112 0 l 2
 84 0 62 22 62 50 c 0
 62 78 84 100 112 100 c 2
 212 100 l 2
 240 100 262 122 262 150 c 0
 262 178 240 200 212 200 c 0
 185 200 163 223 163 250 c 0
 163 277 185 300 212 300 c 2
 262 300 l 2
 309 300 362 341 362 400 c 2
 362 450 l 2
 362 478 384 500 412 500 c 0
EndSplineSet
EndChar

StartChar: uniE668
Encoding: 58984 58984 91
Width: 474
Flags: HMW
LayerCount: 2
Fore
SplineSet
112 500 m 2
 162 500 l 2
 299 500 412 387 412 250 c 0
 412 113 299 0 162 0 c 2
 112 0 l 2
 84 0 62 22 62 50 c 0
 62 78 84 100 112 100 c 2
 162 100 l 2
 245 100 312 167 312 250 c 0
 312 333 245 400 162 400 c 2
 112 400 l 2
 84 400 62 422 62 450 c 0
 62 478 84 500 112 500 c 2
EndSplineSet
EndChar

StartChar: uniE669
Encoding: 58985 58985 92
Width: 624
Flags: HMW
LayerCount: 2
Fore
SplineSet
312 800 m 0
 340 800 362 778 362 750 c 2
 362 500 l 1
 465 500 562 416 562 300 c 2
 562 200 l 2
 562 84 465 0 362 0 c 2
 262 0 l 2
 159 0 62 84 62 200 c 2
 62 300 l 2
 62 416 159 500 262 500 c 1
 262 750 l 2
 262 778 284 800 312 800 c 0
262 400 m 1
 215 400 162 359 162 300 c 2
 162 200 l 2
 162 141 215 100 262 100 c 1
 262 400 l 1
362 400 m 1
 362 100 l 1
 409 100 462 141 462 200 c 2
 462 300 l 2
 462 359 409 400 362 400 c 1
EndSplineSet
EndChar

StartChar: uniE670
Encoding: 58992 58992 94
Width: 224
Flags: HMW
LayerCount: 2
Fore
SplineSet
112 500 m 0
 140 500 162 478 162 450 c 2
 162 50 l 2
 162 22 140 0 112 0 c 0
 84 0 62 22 62 50 c 2
 62 450 l 2
 62 478 84 500 112 500 c 0
EndSplineSet
EndChar

StartChar: uniE671
Encoding: 58993 58993 95
Width: 499
Flags: HMW
LayerCount: 2
Fore
SplineSet
87 0 m 0
 58 0 37 23 37 50 c 0
 37 61 41 72 47 80 c 2
 347 480 l 2
 356 492 369 500 387 500 c 0
 416 500 437 477 437 450 c 2
 437 50 l 2
 437 22 415 0 387 0 c 0
 359 0 337 22 337 50 c 2
 337 300 l 1
 127 20 l 2
 118 8 103 0 87 0 c 0
EndSplineSet
EndChar

StartChar: uniE673
Encoding: 58995 58995 97
Width: 424
Flags: HMW
LayerCount: 2
Fore
SplineSet
112 500 m 0
 126 500 138 494 147 485 c 1
 167 494 189 500 212 500 c 0
 294 500 362 432 362 350 c 0
 362 268 294 200 212 200 c 0
 195 200 178 203 162 209 c 1
 162 200 l 2
 162 141 215 100 262 100 c 2
 312 100 l 2
 340 100 362 78 362 50 c 0
 362 22 340 0 312 0 c 2
 262 0 l 2
 159 0 62 84 62 200 c 0
 62 283 62 367 62 450 c 0
 62 478 84 500 112 500 c 0
212 400 m 0
 184 400 162 378 162 350 c 0
 162 322 184 300 212 300 c 0
 240 300 262 322 262 350 c 0
 262 378 240 400 212 400 c 0
EndSplineSet
EndChar

StartChar: uniE676
Encoding: 58998 58998 100
Width: 474
Flags: HMWO
LayerCount: 2
Fore
SplineSet
362 500 m 0
 390 500 412 478 412 450 c 0
 412 422 390 400 362 400 c 0
 344 400 338 394 326 373 c 0
 313 351 306 318 298 288 c 2
 273 188 l 1
 266 155 257 115 235 77 c 0
 213 38 169 0 112 0 c 0
 84 0 62 22 62 50 c 0
 62 78 84 100 112 100 c 0
 130 100 136 106 148 127 c 0
 161 149 168 182 176 212 c 2
 201 312 l 1
 208 345 217 385 239 423 c 0
 261 462 305 500 362 500 c 0
EndSplineSet
EndChar

StartChar: uniE67A
Encoding: 59002 59002 104
Width: 424
Flags: HMW
LayerCount: 2
Fore
SplineSet
312 500 m 0
 340 500 362 478 362 450 c 0
 362 422 340 400 312 400 c 0
 229 400 162 333 162 250 c 2
 162 50 l 2
 162 22 140 0 112 0 c 0
 84 0 62 22 62 50 c 2
 62 250 l 2
 62 387 175 500 312 500 c 0
EndSplineSet
EndChar

StartChar: uniE67B
Encoding: 59003 59003 105
Width: 424
Flags: HMW
LayerCount: 2
Fore
SplineSet
212 500 m 2
 312 500 l 2
 340 500 362 478 362 450 c 0
 362 436 356 424 347 415 c 1
 356 395 362 373 362 350 c 0
 362 268 294 200 212 200 c 0
 195 200 178 203 162 209 c 1
 162 50 l 2
 162 22 140 0 112 0 c 0
 84 0 62 22 62 50 c 2
 62 350 l 2
 62 435 129 500 212 500 c 2
212 400 m 0
 184 400 162 378 162 350 c 0
 162 322 184 300 212 300 c 0
 240 300 262 322 262 350 c 0
 262 378 240 400 212 400 c 0
EndSplineSet
EndChar

StartChar: uniE67E
Encoding: 59006 59006 108
Width: 524
Flags: HMW
LayerCount: 2
Fore
SplineSet
262 500 m 0
 365 500 462 416 462 300 c 2
 462 50 l 2
 462 22 440 0 412 0 c 0
 384 0 362 22 362 50 c 2
 362 300 l 2
 362 359 309 400 262 400 c 0
 215 400 162 359 162 300 c 2
 162 50 l 2
 162 22 140 0 112 0 c 0
 84 0 62 22 62 50 c 2
 62 300 l 2
 62 416 159 500 262 500 c 0
EndSplineSet
EndChar

StartChar: uniE650
Encoding: 58960 58960 109
Width: 462
Flags: HMW
LayerCount: 2
Fore
SplineSet
300 800 m 2
 350 800 l 2
 378 800 400 778 400 750 c 2
 400 50 l 2
 400 22 378 0 350 0 c 0
 322 0 300 22 300 50 c 2
 300 700 l 1
 217 700 150 633 150 550 c 2
 150 450 l 2
 150 422 128 400 100 400 c 0
 72 400 50 422 50 450 c 2
 50 550 l 2
 50 687 163 800 300 800 c 2
EndSplineSet
EndChar

StartChar: uniE651
Encoding: 58961 58961 110
Width: 499
Flags: HMW
LayerCount: 2
Fore
SplineSet
387 500 m 0
 415 500 437 478 437 450 c 0
 437 217 437 -17 437 -250 c 0
 437 -278 415 -300 387 -300 c 2
 237 -300 l 2
 134 -300 37 -216 37 -100 c 0
 37 16 134 100 237 100 c 2
 337 100 l 1
 337 450 l 2
 337 478 359 500 387 500 c 0
237 0 m 2
 190 0 137 -41 137 -100 c 0
 137 -159 190 -200 237 -200 c 2
 337 -200 l 1
 337 0 l 1
 237 0 l 2
EndSplineSet
EndChar

StartChar: uniE65C
Encoding: 58972 58972 111
Width: 474
Flags: HMW
LayerCount: 2
Fore
SplineSet
362 800 m 0
 391 800 412 777 412 750 c 0
 412 741 410 732 405 724 c 2
 193 376 l 1
 180 351 162 313 162 250 c 0
 162 190 177 157 200 135 c 0
 223 113 258 100 312 100 c 2
 362 100 l 2
 390 100 412 78 412 50 c 0
 412 22 390 0 362 0 c 2
 312 0 l 2
 241 0 177 18 131 62 c 0
 85 106 62 172 62 250 c 0
 62 338 92 401 107 426 c 2
 319 776 l 2
 327 790 342 800 362 800 c 0
EndSplineSet
EndChar

StartChar: uniE65E
Encoding: 58974 58974 114
Width: 549
Flags: HMW
LayerCount: 2
Fore
SplineSet
437 800 m 0
 466 800 487 779 487 750 c 0
 487 739 484 731 480 724 c 0
 410 608 338 492 268 376 c 1
 255 351 237 313 237 250 c 0
 237 190 252 157 275 135 c 0
 298 113 333 100 387 100 c 2
 437 100 l 2
 465 100 487 78 487 50 c 0
 487 22 465 0 437 0 c 2
 387 0 l 2
 316 0 252 18 206 62 c 0
 160 106 137 172 137 250 c 0
 137 318 156 371 170 402 c 1
 159 401 148 400 137 400 c 2
 87 400 l 2
 59 400 37 422 37 450 c 0
 37 478 59 500 87 500 c 2
 137 500 l 2
 177 500 200 506 220 519 c 0
 240 532 261 557 288 601 c 2
 394 776 l 2
 402 790 417 800 437 800 c 0
EndSplineSet
EndChar

StartChar: uniE65A
Encoding: 58970 58970 117
Width: 424
Flags: HMW
LayerCount: 2
Fore
SplineSet
262 800 m 2
 312 800 l 2
 340 800 362 778 362 750 c 0
 362 722 340 700 312 700 c 2
 262 700 l 2
 215 700 162 659 162 600 c 0
 162 532 199 489 249 433 c 0
 299 377 362 307 362 200 c 0
 362 84 265 0 162 0 c 2
 112 0 l 2
 84 0 62 22 62 50 c 0
 62 78 84 100 112 100 c 2
 162 100 l 2
 209 100 262 141 262 200 c 0
 262 268 225 311 175 367 c 0
 125 423 62 493 62 600 c 0
 62 716 159 800 262 800 c 2
EndSplineSet
EndChar

StartChar: uniE65B
Encoding: 58971 58971 118
Width: 474
Flags: HMW
LayerCount: 2
Fore
SplineSet
237 -300 m 0
 133 -300 62 -202 62 -100 c 0
 62 10 137 80 196 136 c 0
 255 192 300 235 300 300 c 0
 300 359 247 400 200 400 c 2
 112 400 l 2
 84 400 62 422 62 450 c 0
 62 478 84 500 112 500 c 2
 200 500 l 2
 303 500 400 416 400 300 c 0
 400 190 324 120 265 64 c 0
 206 8 162 -35 162 -100 c 0
 162 -147 191 -200 237 -200 c 0
 301 -200 302 -190 327 -165 c 0
 336 -156 348 -150 362 -150 c 0
 390 -150 412 -172 412 -200 c 0
 412 -214 406 -226 397 -235 c 0
 372 -260 323 -300 237 -300 c 0
EndSplineSet
EndChar

StartChar: uniE655
Encoding: 58965 58965 119
Width: 524
Flags: HMW
LayerCount: 2
Fore
SplineSet
450 400 m 0
 450 372 427 350 399 350 c 0
 385 350 373 356 364 365 c 0
 331 398 306 400 276 400 c 0
 271 400 267 400 262 400 c 0
 215 400 162 359 162 300 c 2
 162 200 l 2
 162 141 215 100 262 100 c 0
 365 100 462 16 462 -100 c 0
 462 -216 365 -300 262 -300 c 0
 159 -300 62 -216 62 -100 c 0
 62 -40 88 14 130 51 c 1
 89 87 62 139 62 200 c 2
 62 300 l 2
 62 416 159 500 262 500 c 0
 300 500 373 497 435 435 c 0
 444 426 450 414 450 400 c 0
262 0 m 0
 198 0 162 -36 162 -100 c 0
 162 -159 215 -200 262 -200 c 0
 309 -200 362 -159 362 -100 c 0
 362 -41 309 0 262 0 c 0
EndSplineSet
EndChar

StartChar: .notdef
Encoding: 1114112 -1 120
Width: 624
VWidth: 0
Flags: HMW
LayerCount: 2
Fore
SplineSet
87 700 m 2
 537 700 l 2
 551 700 562 689 562 675 c 2
 562 25 l 2
 562 11 551 0 537 0 c 2
 87 0 l 2
 73 0 62 11 62 25 c 2
 62 675 l 2
 62 689 73 700 87 700 c 2
142 650 m 1
 312 395 l 1
 482 650 l 1
 142 650 l 1
112 605 m 1
 112 95 l 1
 282 350 l 1
 112 605 l 1
512 605 m 1
 342 350 l 1
 512 95 l 1
 512 605 l 1
312 305 m 1
 142 50 l 1
 482 50 l 1
 312 305 l 1
EndSplineSet
EndChar

StartChar: uniE66E
Encoding: 58990 58990 121
Width: 374
Flags: HW
HStem: -300 100<170 303.562>
VStem: 62 250<-291.562 -208.438> 213 99<710.333 791.299>
LayerCount: 2
Fore
SplineSet
262 800 m 0xa0
 291 800 312 777 312 750 c 0xa0
 312 747 311 745 311 743 c 2
 170 -200 l 1
 262 -200 l 2
 290 -200 312 -222 312 -250 c 0
 312 -278 290 -300 262 -300 c 2
 112 -300 l 2
 84 -300 62 -278 62 -250 c 0xc0
 62 -247 63 -245 63 -243 c 2
 213 757 l 2
 217 781 237 800 262 800 c 0xa0
EndSplineSet
EndChar

StartChar: uniE66B
Encoding: 58987 58987 123
Width: 574
Flags: HW
HStem: 0 21G<197.5 221 452 476.5> 0 21G<197.5 221 452 476.5> 480 20G<453 476.5>
LayerCount: 2
Fore
SplineSet
62 750 m 0xa0
 62 776 83 800 112 800 c 0
 132 800 149 788 157 772 c 2
 356 374 l 1
 420 476 l 2
 429 490 444 500 462 500 c 0
 491 500 512 477 512 450 c 0
 512 440 509 432 504 424 c 2
 408 270 l 1
 507 72 l 2
 510 65 512 58 512 50 c 0
 512 24 491 0 462 0 c 0
 442 0 425 12 417 28 c 2
 346 170 l 1
 254 24 l 2
 245 10 230 0 212 0 c 0
 183 0 162 23 162 50 c 0
 162 60 165 68 170 76 c 2
 294 275 l 1
 67 728 l 2
 64 735 62 742 62 750 c 0xa0
EndSplineSet
EndChar

StartChar: uniE65D
Encoding: 58973 58973 125
Width: 499
Flags: HW
LayerCount: 2
Fore
SplineSet
199 -300 m 0
 116 -300 37 -237 37 -150 c 2
 37 -100 l 2
 37 16 134 100 237 100 c 2
 311 100 l 1
 313 110 l 2
 326 174 337 224 337 250 c 0
 337 310 322 343 299 365 c 0
 276 387 241 400 187 400 c 2
 137 400 l 2
 109 400 87 422 87 450 c 0
 87 478 109 500 137 500 c 2
 187 500 l 2
 258 500 322 482 368 438 c 0
 414 394 437 328 437 250 c 0
 437 201 423 151 411 90 c 2
 361 -160 l 1
 353 -214 325 -254 292 -275 c 0
 258 -297 223 -300 199 -300 c 0
137 -150 m 2
 137 -179 172 -200 199 -200 c 0
 212 -200 228 -198 238 -191 c 0
 250 -183 256 -173 263 -140 c 2
 291 0 l 1
 237 0 l 2
 190 0 137 -41 137 -100 c 2
 137 -150 l 2
EndSplineSet
EndChar
